<?xml version="1.0" standalone="no"?>
<!DOCTYPE svg PUBLIC "-//W3C//DTD SVG 20010904//EN"
 "http://www.w3.org/TR/2001/REC-SVG-20010904/DTD/svg10.dtd">
<svg version="1.0" xmlns="http://www.w3.org/2000/svg"
 width="192.000000pt" height="192.000000pt" viewBox="0 0 192.000000 192.000000"
 preserveAspectRatio="xMidYMid meet">
<metadata>
Created by potrace 1.11, written by Peter Selinger 2001-2013
</metadata>
<g transform="translate(0.000000,192.000000) scale(0.100000,-0.100000)"
fill="#000000" stroke="none">
<path d="M677 1613 c-1 0 -27 -4 -57 -8 -185 -22 -324 -87 -441 -206 -268
-273 -223 -750 91 -966 88 -60 193 -103 285 -117 17 -2 30 -5 30 -6 0 -1 37
-3 83 -4 45 -1 82 0 82 3 0 3 16 7 36 8 90 5 360 107 395 150 14 16 20 492 6
500 -7 4 -129 6 -249 4 l-28 -1 -2 -162 -3 -163 -60 -25 c-85 -35 -228 -36
-297 -1 -76 37 -134 95 -170 169 -31 63 -33 74 -33 172 0 98 2 109 33 172 37
76 90 128 172 167 49 23 70 26 185 29 l130 4 138 136 c75 75 137 139 137 142
0 4 -459 8 -463 3z"/>
<path d="M1105 1473 l-139 -143 160 0 c181 0 228 -10 306 -67 91 -65 142 -179
140 -309 -2 -203 -98 -328 -282 -368 -25 -5 -26 -8 -25 -77 l1 -72 -76 -49
c-41 -26 -90 -53 -108 -59 -18 -6 -30 -14 -28 -18 9 -14 250 -4 335 13 47 10
92 21 100 25 178 83 232 121 304 216 86 112 118 211 122 372 4 139 -11 215
-63 323 -93 192 -290 318 -536 344 -33 4 -62 8 -65 9 -3 1 -69 -62 -146 -140z"/>
</g>
</svg>
